<svg id="Layer_1" data-name="Layer 1" xmlns="http://www.w3.org/2000/svg" viewBox="0 0 200 200"><defs><style>.cls-1{fill:#fcda05;}</style></defs><title>facbook-iconJPG</title><path class="cls-1" d="M85.46,128.18c0-8-.07-15.94,0-23.91,0-2.88-1.11-4-4-3.94-8.08,0-7.93,1-7.9-8.09,0-2.81,0-5.62,0-8.44,0-2.27.92-3.37,3.34-3.45,10-.35,8.2-.37,8.47-8.93.09-3,.24-6.08.33-9.13.35-11.7,9.47-17.37,18.38-18.23,5.93-.56,11.93-.41,17.9-.64,2.92-.11,4.36,1,4.27,4.1-.11,4.22-.06,8.44,0,12.66,0,2.62-1,3.86-3.78,3.79-2.93-.08-5.86,0-8.78.19-3.19.16-4.91,1.77-4.94,5.12-.14,12.93-.84,10.23,9.92,11,8,.56,7.48-1.17,6.84,7.82-.17,2.45-.52,4.9-.62,7.35-.12,3.16-1.43,4.72-4.78,4.46-2.56-.19-5.16.09-7.73-.06-3.07-.17-4.1,1.15-4.08,4.16.09,15.7,0,31.4,0,47.11,0,5.39-.08,5.47-5.49,5.49-4.57,0-9.15-.06-13.72,0-2.67,0-3.78-1.1-3.75-3.79.08-8.21,0-16.41,0-24.61Z"/></svg>