<svg id="Layer_1" data-name="Layer 1" xmlns="http://www.w3.org/2000/svg" viewBox="0 0 200 200"><defs><style>.cls-1{fill:#fcda05;}</style></defs><title>instagram-iconJPG</title><g id="RdJpIt.tif"><path class="cls-1" d="M43.87,115.81V84.19c.06-1.54.13-3.08.18-4.61a64.24,64.24,0,0,1,.79-9.3,31.94,31.94,0,0,1,4.72-12.51c5.1-7.64,12.44-11.66,21.37-13a94.76,94.76,0,0,1,12.26-.79,3.75,3.75,0,0,0,1-.07h31.62c1.48.16,3,.1,4.45.16a67.27,67.27,0,0,1,10.12.92,31.61,31.61,0,0,1,12.41,5c7.3,5.13,11.14,12.33,12.48,21a94.11,94.11,0,0,1,.79,12.21c0,.31.05.62.07.93v31.86c-.16,1.4-.1,2.81-.16,4.21a78.07,78.07,0,0,1-.7,8.92A32.36,32.36,0,0,1,151,141.37c-5,8.15-12.58,12.44-21.89,13.9a92,92,0,0,1-12.31.79,3.32,3.32,0,0,0-.94.07H84.19c-1.56-.06-3.11-.13-4.67-.18a64.84,64.84,0,0,1-9.24-.79,32.07,32.07,0,0,1-12.6-4.78c-7.59-5.11-11.57-12.43-13-21.31a94.76,94.76,0,0,1-.79-12.26C43.93,116.48,43.89,116.15,43.87,115.81Zm56.19-61.76c-3.72,0-7.43,0-11.14.05-5.12.09-10.24,0-15.34.61A23.73,23.73,0,0,0,65,57.2a18.7,18.7,0,0,0-9.6,12.7,52.19,52.19,0,0,0-1.1,9.82c-.19,3.85-.17,7.72-.2,11.58,0,6.75-.06,13.51,0,20.26.07,4.62.09,9.24.49,13.85a25.44,25.44,0,0,0,2.25,8.91c2.66,5.54,7.13,8.83,13,10.3a51.21,51.21,0,0,0,9.88,1.11c3.74.19,7.49.18,11.24.2,10.24,0,20.49.14,30.73-.29a44.06,44.06,0,0,0,7.34-.79c8.26-1.75,13.51-6.66,15.58-14.89a49.54,49.54,0,0,0,1.08-9.71c.19-4.1.19-8.21.2-12.31,0-9.87.13-19.74-.29-29.61a45.51,45.51,0,0,0-.8-7.46,19.56,19.56,0,0,0-6.53-11.48A21.2,21.2,0,0,0,128,54.93a70.59,70.59,0,0,0-10.87-.75C111.42,54.07,105.74,54,100.06,54.05Z"/><path class="cls-1" d="M128.88,100A28.88,28.88,0,1,1,100,71.12,28.89,28.89,0,0,1,128.88,100Zm-10.28-.78a18.62,18.62,0,1,0-16.87,19.33A18.59,18.59,0,0,0,118.6,99.22Z"/><path class="cls-1" d="M129.94,76.86a6.82,6.82,0,1,1,6.83-6.8A6.89,6.89,0,0,1,129.94,76.86Z"/></g></svg>