<svg id="Layer_1" data-name="Layer 1" xmlns="http://www.w3.org/2000/svg" viewBox="0 0 900 219.13"><defs><style>.cls-1{fill:#fff;}</style></defs><title>logoWhite</title><path class="cls-1" d="M149.75,135.55a32,32,0,0,1-4.5,8.92,28.31,28.31,0,0,1-7.86,7.4,21.87,21.87,0,0,1-12.1,3.11h-25V107.25H111a15.86,15.86,0,0,1,7.73,1.65,13.17,13.17,0,0,1,4.76,4.43,23.06,23.06,0,0,1,2.78,6.35q1,3.57,1.92,7.4h1.45V86H128.2a72,72,0,0,1-3,9.71,17.52,17.52,0,0,1-3.7,5.95,11.2,11.2,0,0,1-5.22,3,29.76,29.76,0,0,1-7.41.79H87.08V155H72.4v1.85h80.65v-29H151.6A46.46,46.46,0,0,1,149.75,135.55Z"/><path class="cls-1" d="M131.5,65.87a17.51,17.51,0,0,1,6.61,4,24.72,24.72,0,0,1,4.76,6.61,65.79,65.79,0,0,1,3.71,9.06H148V62.7H87.08v1.85h35.17A28.54,28.54,0,0,1,131.5,65.87Z"/><path class="cls-1" d="M235.16,147.71Q228.55,155,216.91,155H193.38V64.55h14.67V62.7H165.48v1.85h14.68V155H165.48v1.85h80.78v-29h-1.45Q241.77,140.44,235.16,147.71Z"/><path class="cls-1" d="M270.72,107.25h23.93a15.92,15.92,0,0,1,7.74,1.65,13.25,13.25,0,0,1,4.76,4.43,23,23,0,0,1,2.77,6.35q1,3.57,1.92,7.4h1.45V86h-1.45a72,72,0,0,1-3,9.71,17.37,17.37,0,0,1-3.7,5.95,11.2,11.2,0,0,1-5.22,3,29.73,29.73,0,0,1-7.4.79h-8.6V64.55h21.95a28.54,28.54,0,0,1,9.25,1.32,17.63,17.63,0,0,1,6.62,4,24.92,24.92,0,0,1,4.75,6.61,65.79,65.79,0,0,1,3.71,9.06h1.45V62.7H256.05v1.85h14.67Z"/><path class="cls-1" d="M333.39,135.55a32,32,0,0,1-4.5,8.92,28.18,28.18,0,0,1-7.86,7.4,21.87,21.87,0,0,1-12.1,3.11H270.61v1.84H336.7v-29h-1.46A46.46,46.46,0,0,1,333.39,135.55Z"/><path class="cls-1" d="M407.16,123.12h17.06v11.1a23.26,23.26,0,0,1-2.05,10.12,21.22,21.22,0,0,1-5.29,7.07,22.17,22.17,0,0,1-7.34,4.17,25.51,25.51,0,0,1-8.19,1.38,36.19,36.19,0,0,1-11-1.38,23.12,23.12,0,0,1-8.19-5,25.29,25.29,0,0,1-5.82-7.67,45.3,45.3,0,0,1-3.51-9.78,79.8,79.8,0,0,1-1.78-11.24q-.52-6-.53-11.9a133.28,133.28,0,0,1,1.13-17.32,48.39,48.39,0,0,1,4.49-15.4,28.5,28.5,0,0,1,9.39-11q6-4.15,15.93-4.16,8.32,0,13.68,2.91a26.66,26.66,0,0,1,8.6,7.14,30.06,30.06,0,0,1,4.76,8.85,53.07,53.07,0,0,1,2.05,8.07H432V62.7h-2a9.82,9.82,0,0,1-2.18,2,7.33,7.33,0,0,1-3.77.72,11.13,11.13,0,0,1-4.3-.79l-4.3-1.79a38.63,38.63,0,0,0-5.62-1.78,35.56,35.56,0,0,0-8.26-.79A39.61,39.61,0,0,0,384.16,64a49.68,49.68,0,0,0-13.62,9.65c-1.15,1.15-2.58,2.73-4.3,4.76a45.2,45.2,0,0,0-5,7.54,51.27,51.27,0,0,0-4.16,10.51A49.12,49.12,0,0,0,355.34,110a45.75,45.75,0,0,0,4.36,20.23,57.36,57.36,0,0,0,11,15.6,45.17,45.17,0,0,0,14,9.85,42.06,42.06,0,0,0,16.66,3.11,38.45,38.45,0,0,0,10.57-1.26,47.84,47.84,0,0,0,7.61-2.84c2.15-1.06,4.05-2,5.68-2.85a10.59,10.59,0,0,1,4.83-1.25,6.14,6.14,0,0,1,2.91.53,13,13,0,0,1,2.38,2h1.58v-30h10.58v-1.85H407.16Z"/><polygon class="cls-1" points="500.77 60.32 497.6 60.32 461.9 154.98 450.26 154.98 450.26 156.83 478.69 156.83 478.69 154.98 464.01 154.98 477.9 118.23 478.69 116.37 493.23 77.9 507.78 116.37 508.57 118.23 522.45 154.98 507.78 154.98 507.78 156.83 548.5 156.83 548.5 154.98 536.73 154.98 500.77 60.32"/><polygon class="cls-1" points="609.71 64.55 624.39 64.55 624.39 134.75 624.12 134.75 579.44 62.7 551.14 62.7 551.14 64.55 565.82 64.55 565.82 154.98 551.14 154.98 551.14 156.83 582.48 156.83 582.48 154.98 567.8 154.98 567.8 69.97 568.07 69.97 623.73 158.68 626.37 158.68 626.37 64.55 641.05 64.55 641.05 62.7 609.71 62.7 609.71 64.55"/><path class="cls-1" d="M667.75,70.17q6-5.62,16.66-5.62H704.9l-44.25,74.07h14.54L720.77,62.7H657.7v23h1.46Q661.8,75.79,667.75,70.17Z"/><path class="cls-1" d="M716.93,140.44A32.11,32.11,0,0,1,711,148.5a28.55,28.55,0,0,1-6.34,4.56Q701.07,155,694.46,155H650.88l-1.11,1.85h73.11v-29h-1.45A43.11,43.11,0,0,1,716.93,140.44Z"/><polygon class="cls-1" points="815.83 154.98 779.87 60.32 776.69 60.32 741 154.98 729.36 154.98 729.36 156.83 757.79 156.83 757.79 154.98 743.11 154.98 756.99 118.23 757.79 116.37 772.33 77.9 786.87 116.37 787.67 118.23 801.55 154.98 786.87 154.98 786.87 156.83 827.6 156.83 827.6 154.98 815.83 154.98"/></svg>