<svg id="Layer_1" data-name="Layer 1" xmlns="http://www.w3.org/2000/svg" viewBox="0 0 200 200"><defs><style>.cls-1{fill:#fcda05;}</style></defs><title>twitter-iconJPG</title><path class="cls-1" d="M164.26,58.71a31.54,31.54,0,0,1-7.51,8.78c-2.91,2.38-4.11,5-4.33,8.91-1.74,30.31-13.52,55.47-40.6,70.84-24.43,13.86-49.66,13-74.38-.42a8.46,8.46,0,0,1-1.2-.89,6.51,6.51,0,0,1-.5-1.18c14,.68,26-3.18,36.54-11.57-1.31-2.19-3.16-1.9-4.71-2.32A27.54,27.54,0,0,1,50.34,117.4c-1.82-3.12-1.68-5,2.63-4.81,1.6.07,3.37.27,4.69-1.32-.54-1.92-2.47-2-3.81-2.66-8.56-4.56-13.26-11.84-15.21-21.14-.67-3.21.1-4.46,3.59-3.09,2.07.82,4.27,2,7.3.62C44,79.71,40.15,73.68,38.86,66.22a32.72,32.72,0,0,1,1-14.3C41,47.87,42.42,48,45,51,57.14,64.85,72.11,73.9,90.4,77.13c1.14.21,2.3.35,3.45.55,3.37.58,4.86-.48,4.53-4.22a27.85,27.85,0,0,1,6.36-20.95c9.15-11,24.59-13.2,35.72-4.23C145,52,148.82,52.15,153.59,50c2.23-1,4.56-1.82,7-2.78-.7,4.67-.84,4.88-8.6,13C156.29,61.67,159.76,58.66,164.26,58.71Z"/></svg>